<?xml version="1.0" standalone="no"?>
<!DOCTYPE svg PUBLIC "-//W3C//DTD SVG 1.1//EN" "http://www.w3.org/Graphics/SVG/1.1/DTD/svg11.dtd" >
<svg xmlns="http://www.w3.org/2000/svg">
<metadata></metadata>
<defs>
<font id="gtwalsheimprolight" horiz-adv-x="1167" >
<font-face units-per-em="2048" ascent="1638" descent="-410" />
<missing-glyph horiz-adv-x="522" />
<glyph horiz-adv-x="0" />
<glyph horiz-adv-x="682" />
<glyph unicode=" "  horiz-adv-x="522" />
<glyph unicode="&#x09;" horiz-adv-x="522" />
<glyph unicode="&#xa0;" horiz-adv-x="522" />
<glyph unicode="!" horiz-adv-x="579" d="M164 104q0 54 35.5 90.5t89.5 36.5t91.5 -36.5t37.5 -90.5t-37.5 -90.5t-91.5 -36.5t-89.5 36.5t-35.5 90.5zM217 416v1034h145v-1034h-145z" />
<glyph unicode="&#x22;" horiz-adv-x="655" d="M123 1364v104h127v-104l-27 -410h-73zM406 1364v104h126v-104l-26 -410h-74z" />
<glyph unicode="#" horiz-adv-x="1126" d="M59 438v107h224l47 344h-209v106h225l60 439h112l-59 -439h307l59 439h113l-59 -439h188v-106h-205l-47 -344h191v-107h-205l-62 -438h-112l61 438h-307l-62 -438h-112l61 438h-209zM395 545h307l48 344h-308z" />
<glyph unicode="$" horiz-adv-x="1171" d="M137 444h139q0 -159 99 -253.5t270 -94.5q151 0 241.5 73.5t90.5 199.5q0 58 -20 104t-47.5 73.5t-75.5 51.5t-83 35t-92 26q-69 20 -107 31.5t-95 34t-89.5 42.5t-71 53t-58.5 70t-34 88.5t-14 113.5q0 148 106 250.5t286 119.5v207h106v-209q181 -17 287 -129t110 -297 h-141q-2 142 -81.5 222.5t-219.5 80.5q-147 0 -230 -66.5t-83 -178.5q0 -47 11.5 -85t36 -66t50 -48t67.5 -37t73.5 -27t82.5 -24q58 -16 96.5 -28t91.5 -33t88.5 -42t74.5 -53.5t61.5 -69t37.5 -87t15 -109.5q0 -182 -116 -288t-312 -124v-207h-106v207q-199 17 -322 145 t-123 328z" />
<glyph unicode="%" horiz-adv-x="1808" d="M135 895v293q0 109 76.5 184.5t198.5 75.5q124 0 201 -78t77 -190v-293q0 -109 -77 -183.5t-201 -74.5q-123 0 -199 77t-76 189zM248 895q0 -71 45 -121.5t117 -50.5q75 0 120 50t45 122v285q0 72 -45 122t-120 50q-72 0 -117 -50.5t-45 -121.5v-285zM408 -2l895 1542 l106 -63l-895 -1543zM1118 250v295q0 107 77.5 182.5t199.5 75.5q123 0 199.5 -78t76.5 -188v-295q0 -107 -77 -182.5t-199 -75.5q-124 0 -200.5 78t-76.5 188zM1231 250q0 -71 45.5 -120.5t118.5 -49.5t118.5 49.5t45.5 120.5v287q0 71 -45.5 120.5t-118.5 49.5 t-118.5 -49.5t-45.5 -120.5v-287z" />
<glyph unicode="&#x26;" horiz-adv-x="1226" d="M102 401q0 128 73 215.5t204 126.5q-121 36 -185.5 118.5t-64.5 209.5q0 171 125.5 278t316.5 107q197 0 319 -114t122 -298h-142q0 131 -78 207t-227 76q-136 0 -215.5 -68t-79.5 -188q0 -121 76.5 -192.5t228.5 -71.5h60v-125h-60q-161 0 -247 -80t-86 -213 q0 -122 92 -202.5t246 -80.5q159 0 243 102.5t84 270.5h-188v127h465v-127h-135q0 -224 -126.5 -363t-342.5 -139q-206 0 -342 116.5t-136 307.5z" />
<glyph unicode="'" horiz-adv-x="372" d="M123 1364v104h127v-104l-27 -410h-73z" />
<glyph unicode="(" horiz-adv-x="708" d="M203 -16v1167q0 129 58 237t167.5 173t249.5 65v-127q-150 0 -243 -100.5t-93 -247.5v-1167q0 -145 93 -245.5t243 -100.5v-130q-139 0 -249 66t-168 174t-58 236z" />
<glyph unicode=")" horiz-adv-x="708" d="M31 -362q150 0 243 100.5t93 245.5v1167q0 147 -93 247.5t-243 100.5v127q211 0 343 -138t132 -337v-1167q0 -129 -57.5 -236.5t-167.5 -173.5t-250 -66v130z" />
<glyph unicode="*" horiz-adv-x="929" d="M98 1165l29 90l307 -118l-16 331h96l-16 -331l305 118l31 -90l-318 -88l217 -272l-82 -60l-184 289l-188 -289l-82 60l217 272z" />
<glyph unicode="+" d="M180 522v121h336v344h133v-344h338v-121h-338v-342h-133v342h-336z" />
<glyph unicode="," horiz-adv-x="512" d="M113 111q0 54 36 89.5t91 35.5q72 0 115.5 -57t43.5 -146q0 -142 -70.5 -205.5t-201.5 -65.5v74q118 0 145 84q14 33 14 69q0 8 -1 17q-16 -16 -52 -16q-53 0 -86.5 34.5t-33.5 86.5z" />
<glyph unicode="-" horiz-adv-x="602" d="M61 522v121h480v-121h-480z" />
<glyph unicode="." horiz-adv-x="471" d="M113 113q0 54 34.5 88.5t85.5 34.5q54 0 89.5 -34.5t35.5 -88.5q0 -51 -36 -87t-89 -36q-51 0 -85.5 36t-34.5 87z" />
<glyph unicode="/" horiz-adv-x="860" d="M20 -96l746 1732l123 -53l-746 -1730z" />
<glyph unicode="0" horiz-adv-x="1183" d="M115 449v534q0 199 132 337t343 138q142 0 252.5 -65t168.5 -173t58 -237v-534q0 -128 -58 -235.5t-169 -173t-252 -65.5q-140 0 -250 65.5t-167.5 172.5t-57.5 236zM254 449q0 -145 93 -246t243 -101q151 0 244.5 101t93.5 246v534q0 147 -93.5 247.5t-244.5 100.5 q-150 0 -243 -100.5t-93 -247.5v-534z" />
<glyph unicode="1" horiz-adv-x="665" d="M66 1081v115q125 0 189.5 25t85.5 73t21 140h134v-1434h-144v1081h-286z" />
<glyph unicode="2" horiz-adv-x="1077" d="M96 0q0 134 18 235.5t49.5 172t87 126.5t116.5 93.5t153 79.5q52 22 84.5 37.5t75.5 39.5t68.5 49t50 58.5t36 76t11.5 93.5q0 124 -78 195t-217 71q-142 0 -228.5 -87t-86.5 -232h-140q0 200 128.5 324t326.5 124q199 0 316.5 -108t117.5 -297q0 -77 -26.5 -143.5 t-64.5 -111.5t-95.5 -86t-102 -63.5t-102.5 -46.5q-137 -64 -208.5 -125t-101.5 -141t-30 -207h737v-127h-895z" />
<glyph unicode="3" horiz-adv-x="1124" d="M68 426h139q0 -145 95 -232.5t245 -87.5q146 0 234.5 81t88.5 204q0 132 -83 211.5t-240 79.5h-109v125h109q145 0 221 71.5t76 192.5q0 120 -80.5 188t-216.5 68q-149 0 -227 -76t-78 -207h-140q0 184 121 298t316 114q193 0 318.5 -107t125.5 -278q0 -127 -66 -213 t-184 -115q129 -31 203 -123t74 -227q0 -183 -132.5 -299.5t-336.5 -116.5q-203 0 -338 122.5t-135 326.5z" />
<glyph unicode="4" horiz-adv-x="1118" d="M143 492v942h140v-816h405v453h139v-453h234v-126h-234v-492h-139v492h-545z" />
<glyph unicode="5" horiz-adv-x="1208" d="M141 453h142q0 -145 92.5 -246t240.5 -101q152 0 246 100.5t94 246.5q0 145 -93.5 244.5t-246.5 99.5q-210 0 -294 -187h-148v824h819v-127h-690v-559q42 82 137 128t197 46q142 0 248 -64t158.5 -169t52.5 -236q0 -129 -58 -236.5t-169 -173.5t-253 -66q-139 0 -249 66 t-168 174t-58 236z" />
<glyph unicode="6" horiz-adv-x="1112" d="M76 453q0 141 80 272l440 709h162l-352 -551q45 45 145 45q142 0 252.5 -65t168.5 -173t58 -237t-58 -236.5t-169 -173.5t-252 -66q-139 0 -249 66t-168 174t-58 236zM215 453q0 -145 93 -246t243 -101q151 0 245.5 101t94.5 246t-94.5 246.5t-245.5 101.5 q-150 0 -243 -101.5t-93 -246.5z" />
<glyph unicode="7" horiz-adv-x="929" d="M78 1307v127h862l-661 -1434h-150l610 1307h-661z" />
<glyph unicode="8" horiz-adv-x="1169" d="M113 393q0 127 68.5 224t197.5 128q-118 34 -178 120t-60 200q0 170 121 280.5t324 110.5q200 0 321 -111.5t121 -279.5q0 -114 -59.5 -200t-177.5 -120q128 -31 197 -128.5t69 -223.5q0 -176 -129.5 -296t-341.5 -120q-215 0 -344 117.5t-129 298.5zM252 393 q0 -125 91.5 -206t242.5 -81q150 0 241 81.5t91 205.5q0 122 -90.5 204.5t-241.5 82.5q-154 0 -244 -81t-90 -206zM283 1059q0 -115 82 -189.5t221 -74.5t221 74.5t82 189.5q0 118 -82 193t-221 75t-221 -74.5t-82 -193.5z" />
<glyph unicode="9" horiz-adv-x="1112" d="M82 981q0 96 34.5 182.5t95.5 151t152 103t197 38.5q139 0 249 -65.5t168 -173.5t58 -236q0 -141 -80 -272l-440 -709h-162l353 551q-39 -45 -129 -45q-223 0 -359.5 135t-136.5 340zM221 981q0 -145 94.5 -246.5t245.5 -101.5q150 0 243 101.5t93 246.5t-93 245.5 t-243 100.5q-151 0 -245.5 -100.5t-94.5 -245.5z" />
<glyph unicode=":" horiz-adv-x="471" d="M113 111q0 54 34.5 89.5t85.5 35.5q54 0 89.5 -35.5t35.5 -89.5q0 -51 -35.5 -86t-89.5 -35q-51 0 -85.5 35t-34.5 86zM113 807q0 51 34.5 87t85.5 36q53 0 89 -36t36 -87q0 -54 -35.5 -88.5t-89.5 -34.5q-51 0 -85.5 34.5t-34.5 88.5z" />
<glyph unicode=";" horiz-adv-x="481" d="M113 111q0 54 36 89.5t91 35.5q72 0 115.5 -57t43.5 -146q0 -142 -70.5 -205.5t-201.5 -65.5v74q118 0 145 84q14 33 14 69q0 8 -1 17q-16 -16 -52 -16q-53 0 -86.5 34.5t-33.5 86.5zM113 807q0 54 34.5 89.5t85.5 35.5q54 0 89.5 -35.5t35.5 -89.5q0 -51 -35.5 -86 t-89.5 -35q-51 0 -85.5 35t-34.5 86z" />
<glyph unicode="&#x3c;" d="M63 530v101l1039 379v-129l-842 -299l842 -301v-129z" />
<glyph unicode="=" d="M170 348v121h827v-121h-827zM170 692v121h827v-121h-827z" />
<glyph unicode="&#x3e;" d="M66 152v129l841 301l-841 299v129l1038 -379v-101z" />
<glyph unicode="?" horiz-adv-x="1017" d="M45 1010q0 202 127 325t326 123q198 0 317 -104t119 -283q0 -60 -17 -114t-38 -88t-58 -70t-57.5 -51t-56.5 -39q-56 -37 -84.5 -61t-54 -61t-35 -84t-9.5 -118h-135q0 150 45.5 235t151.5 152q32 19 54 34t53.5 43.5t51 57.5t34 72t14.5 92q0 127 -76.5 193.5 t-218.5 66.5q-141 0 -227.5 -87t-86.5 -234h-139zM332 104q0 54 35.5 90.5t89.5 36.5t90.5 -36.5t36.5 -90.5t-36.5 -90.5t-90.5 -36.5t-89.5 36.5t-35.5 90.5z" />
<glyph unicode="@" horiz-adv-x="1796" d="M66 422q0 188 68.5 347t185 264.5t269.5 164.5t322 59q387 0 604.5 -193.5t217.5 -543.5q0 -326 -77 -473t-243 -147q-98 0 -159.5 61.5t-75.5 163.5v70q-42 -88 -126.5 -140.5t-191.5 -52.5q-121 0 -217 58t-147.5 153.5t-51.5 208.5q0 114 51.5 210t147.5 154t217 58 q107 0 191.5 -52.5t126.5 -140.5v174h112v-620q0 -97 39 -148t103 -51q45 0 78.5 26.5t58 85.5t37 159.5t12.5 242.5q0 301 -187 466t-520 165q-145 0 -277.5 -51t-233.5 -143t-160.5 -231t-59.5 -304q0 -111 30.5 -215.5t94.5 -196.5t154.5 -161t218.5 -108.5t278 -39.5 q272 0 480 115l45 -92q-227 -130 -525 -130q-174 0 -321 46t-250.5 125t-176.5 185t-107.5 225.5t-34.5 246.5zM559 422q0 -130 86.5 -223t218.5 -93q138 0 226 92.5t88 223.5q0 132 -88 224.5t-226 92.5q-133 0 -219 -92.5t-86 -224.5z" />
<glyph unicode="A" horiz-adv-x="1118" d="M12 0l494 1434h106l494 -1434h-148l-88 256h-622l-88 -256h-148zM291 383h536l-268 827z" />
<glyph unicode="B" horiz-adv-x="1193" d="M170 0v1434h489q86 0 157 -23t117.5 -60.5t78 -87t45.5 -102t14 -106.5q0 -125 -75 -218t-183 -114q101 -13 184.5 -108t83.5 -228q0 -68 -24.5 -134t-73 -124t-132.5 -93.5t-192 -35.5h-489zM309 127h357q132 0 203 78t71 186q0 65 -28.5 124t-91.5 100.5t-148 41.5 h-363v-530zM309 784h357q85 0 147.5 40.5t90.5 98t28 121.5q0 104 -71.5 183.5t-201.5 79.5h-350v-523z" />
<glyph unicode="C" horiz-adv-x="1587" d="M88 719q0 115 31.5 225t94 204t148.5 164.5t202 111t247 40.5q148 0 270 -39.5t206 -109.5t137.5 -162t76.5 -203h-145q-44 173 -179.5 280t-349.5 107q-110 0 -206.5 -33.5t-167 -91.5t-121 -136t-76 -169t-25.5 -188q0 -101 26.5 -194t80 -171t127.5 -135.5t174 -90 t215 -32.5q167 0 305.5 91.5t188.5 234.5h153q-59 -198 -239 -325.5t-424 -127.5q-170 0 -313 60.5t-237.5 164t-147 239t-52.5 286.5z" />
<glyph unicode="D" horiz-adv-x="1421" d="M170 0v1434h420q138 0 259 -40t208.5 -109t150.5 -160t94 -195t31 -213t-31 -213t-94 -195t-150.5 -160t-208.5 -109t-259 -40h-420zM309 127h281q139 0 254.5 50t190 133t115 188.5t40.5 218.5t-40.5 218.5t-115 188.5t-190 133t-254.5 50h-281v-1180z" />
<glyph unicode="E" horiz-adv-x="1112" d="M170 0v1434h782v-127h-643v-531h643v-127h-643v-522h643v-127h-782z" />
<glyph unicode="F" horiz-adv-x="1101" d="M170 0v1434h782v-127h-643v-568h643v-127h-643v-612h-139z" />
<glyph unicode="G" horiz-adv-x="1705" d="M88 717q0 116 32 226t95.5 204t150.5 165t204.5 111.5t250.5 40.5q227 0 390.5 -115t201.5 -286h-143q-33 118 -158 196t-291 78q-134 0 -247 -52t-187 -138.5t-115 -198t-41 -231.5q0 -122 39.5 -232t113 -197.5t191.5 -139.5t263 -52q225 0 355.5 121t156.5 320h-402 v127h701v-127h-152q-38 -263 -210.5 -415.5t-465.5 -152.5q-138 0 -257 40.5t-205 111.5t-148 165.5t-92.5 204t-30.5 226.5z" />
<glyph unicode="H" horiz-adv-x="1357" d="M170 0v1434h139v-658h738v658h141v-1434h-141v649h-738v-649h-139z" />
<glyph unicode="I" horiz-adv-x="483" d="M170 0v1434h143v-1434h-143z" />
<glyph unicode="J" horiz-adv-x="1097" d="M33 444h139q0 -157 91 -252.5t233 -95.5q143 0 227 93.5t84 252.5v992h141v-992q0 -211 -123.5 -342t-328.5 -131q-204 0 -333.5 132.5t-129.5 342.5z" />
<glyph unicode="K" horiz-adv-x="1175" d="M170 0v1434h139v-674l668 674h180l-704 -717l704 -717h-180l-668 672v-672h-139z" />
<glyph unicode="L" horiz-adv-x="864" d="M170 0v1434h139v-1307h494v-127h-633z" />
<glyph unicode="M" horiz-adv-x="1658" d="M170 0v1434h135l524 -1223l525 1223h135v-1434h-139v1108l-465 -1108h-111l-465 1108v-1108h-139z" />
<glyph unicode="N" horiz-adv-x="1355" d="M170 0v1434h156l718 -1192v1192h142v-1434h-156l-721 1192v-1192h-139z" />
<glyph unicode="O" horiz-adv-x="1650" d="M88 717q0 116 32 226t95 204t150.5 165t206 111.5t253.5 40.5q112 0 213 -28.5t181.5 -79t145.5 -120.5t108.5 -153t66.5 -176t23 -190q0 -146 -52 -280.5t-145 -238.5t-234 -166.5t-307 -62.5q-168 0 -309 62.5t-233.5 166.5t-143.5 238.5t-51 280.5zM233 717 q0 -120 41.5 -231.5t115.5 -198.5t187.5 -139t247.5 -52q133 0 246.5 52t188 139t116 198.5t41.5 231.5t-41.5 231.5t-116 198t-188 138.5t-246.5 52q-134 0 -247.5 -52t-187.5 -138.5t-115.5 -198t-41.5 -231.5z" />
<glyph unicode="P" horiz-adv-x="1220" d="M170 0v1434h494q141 0 252 -66t169 -173.5t58 -236.5q0 -96 -34.5 -182.5t-95.5 -151t-152 -103t-197 -38.5h-355v-483h-139zM309 610h355q151 0 244 101t93 247t-93 247.5t-244 101.5h-355v-697z" />
<glyph unicode="Q" horiz-adv-x="1650" d="M88 717q0 116 32 226t95 204t150.5 165t206 111.5t253.5 40.5q112 0 213 -28.5t181.5 -79t145.5 -120.5t108.5 -153t66.5 -176t23 -190q0 -278 -164.5 -479.5t-423.5 -245.5l131 -185l-123 -61l-160 223q-134 0 -252 40.5t-205.5 112t-150.5 166t-95 204t-32 225.5z M233 717q0 -120 41.5 -231.5t115.5 -198.5t187.5 -139t247.5 -52q133 0 246.5 52t188 139t116 198.5t41.5 231.5t-41.5 231.5t-116 198t-188 138.5t-246.5 52q-134 0 -247.5 -52t-187.5 -138.5t-115.5 -198t-41.5 -231.5z" />
<glyph unicode="R" horiz-adv-x="1232" d="M170 0v1434h494q141 0 252 -66t169 -173.5t58 -236.5q0 -159 -91.5 -285t-244.5 -167l321 -506h-161l-305 483h-353v-483h-139zM309 610h355q151 0 244 101t93 247t-93 247.5t-244 101.5h-355v-697z" />
<glyph unicode="S" horiz-adv-x="1171" d="M96 444h140q0 -159 99 -253.5t269 -94.5q151 0 241.5 73.5t90.5 199.5q0 58 -20 104t-47.5 73.5t-75.5 51.5t-83 35t-92 26q-53 15 -83 24t-77 25.5t-74 29.5t-64 34t-58.5 42t-45.5 50.5t-36.5 62.5t-21 75t-8.5 90q0 163 123 267.5t325 104.5q198 0 320 -117t126 -313 h-139q-5 142 -84 222.5t-219 80.5q-146 0 -228.5 -66.5t-82.5 -178.5q0 -56 18.5 -100.5t44.5 -71.5t73.5 -51t84 -35.5t98.5 -28.5q58 -16 96.5 -28t91.5 -33t88.5 -42t74.5 -53.5t61.5 -69t37.5 -87t15 -109.5q0 -195 -132.5 -304.5t-348.5 -109.5q-219 0 -358.5 130.5 t-139.5 344.5z" />
<glyph unicode="T" horiz-adv-x="970" d="M29 1307v127h913v-127h-389v-1307h-139v1307h-385z" />
<glyph unicode="U" horiz-adv-x="1265" d="M150 451v983h139v-983q0 -147 95.5 -251t246.5 -104q154 0 250 104t96 251v983h139v-983q0 -97 -35 -185t-96.5 -153.5t-153.5 -104.5t-200 -39q-141 0 -252.5 66.5t-170 176t-58.5 239.5z" />
<glyph unicode="V" horiz-adv-x="1140" d="M10 1434h148l413 -1209l412 1209h147l-507 -1434h-105z" />
<glyph unicode="W" horiz-adv-x="1937" d="M12 1434h148l389 -1198l364 1198h111l362 -1198l392 1198h147l-485 -1434h-109l-362 1196l-363 -1196h-108z" />
<glyph unicode="X" horiz-adv-x="1093" d="M23 0l444 717l-444 717h157l367 -596l366 596h160l-446 -717l446 -717h-160l-366 594l-367 -594h-157z" />
<glyph unicode="Y" d="M18 1434h162l455 -723l371 723h153l-731 -1434h-154l289 567z" />
<glyph unicode="Z" horiz-adv-x="1130" d="M31 0l848 1307h-805v127h1042l-848 -1307h867v-127h-1104z" />
<glyph unicode="[" horiz-adv-x="647" d="M170 -479v2107h393v-123h-260v-1863h260v-121h-393z" />
<glyph unicode="\" horiz-adv-x="860" d="M-18 1583l120 53l746 -1732l-121 -51z" />
<glyph unicode="]" horiz-adv-x="647" d="M84 -358h260v1863h-260v121h393v-2105h-393v121z" />
<glyph unicode="^" horiz-adv-x="1286" d="M123 662l467 874h100l473 -874h-149l-373 708l-371 -708h-147z" />
<glyph unicode="_" horiz-adv-x="1146" d="M61 -102h1024v-99h-1024v99z" />
<glyph unicode="`" horiz-adv-x="858" d="M123 1384l65 107l510 -281l-65 -106z" />
<glyph unicode="a" horiz-adv-x="1212" d="M88 453q0 198 131.5 336.5t337.5 138.5q118 0 213 -57.5t139 -155.5v192h133v-907h-133v190q-45 -97 -139.5 -155t-212.5 -58q-103 0 -191.5 38.5t-149 103.5t-94.5 151.5t-34 182.5zM221 453q0 -146 95.5 -249.5t246.5 -103.5q154 0 250 103.5t96 249.5q0 147 -96 250.5 t-250 103.5q-151 0 -246.5 -103.5t-95.5 -250.5z" />
<glyph unicode="b" horiz-adv-x="1214" d="M170 0v1434h133v-719q44 98 139 155.5t213 57.5q206 0 337.5 -138.5t131.5 -336.5q0 -96 -34 -182.5t-94.5 -151.5t-149 -103.5t-191.5 -38.5q-118 0 -212.5 58t-139.5 155v-190h-133zM303 453q0 -146 96 -249.5t250 -103.5q151 0 246.5 103.5t95.5 249.5 q0 147 -95.5 250.5t-246.5 103.5q-154 0 -250 -103.5t-96 -250.5z" />
<glyph unicode="c" horiz-adv-x="1073" d="M94 455q0 93 30 178t85.5 151.5t143 106t194.5 39.5q105 0 186 -30.5t130 -82.5t75.5 -112.5t32.5 -129.5h-133q-13 105 -82 169.5t-207 64.5q-101 0 -175.5 -51t-109.5 -129.5t-35 -173.5q0 -72 20.5 -135t59.5 -112.5t102.5 -78.5t143.5 -29q234 0 287 211h133 q-21 -149 -130.5 -241.5t-297.5 -92.5q-107 0 -194.5 39.5t-143 106.5t-85.5 152.5t-30 179.5z" />
<glyph unicode="d" horiz-adv-x="1212" d="M88 453q0 198 131.5 336.5t337.5 138.5q118 0 213 -57.5t139 -155.5v719h133v-1434h-133v190q-45 -97 -139.5 -155t-212.5 -58q-103 0 -191.5 38.5t-149 103.5t-94.5 151.5t-34 182.5zM221 453q0 -146 95.5 -249.5t246.5 -103.5q154 0 250 103.5t96 249.5 q0 147 -96 250.5t-250 103.5q-151 0 -246.5 -103.5t-95.5 -250.5z" />
<glyph unicode="e" horiz-adv-x="1062" d="M94 455q0 208 119 340.5t328 132.5q177 0 298.5 -117t121.5 -289q0 -48 -7 -98h-727q5 -144 84 -237t236 -93q106 0 173.5 46.5t92.5 119.5h135q-26 -118 -134 -200.5t-267 -82.5q-111 0 -199 38t-142.5 104.5t-83 152t-28.5 183.5zM229 528h600q0 131 -83.5 213 t-208.5 82q-135 0 -218.5 -79.5t-89.5 -215.5z" />
<glyph unicode="f" horiz-adv-x="686" d="M45 793v114h207v203q0 88 20.5 153t49 99t71.5 54t75.5 25t72.5 5q72 0 127 -25v-114q-42 18 -111 18q-29 0 -50 -3t-45.5 -14.5t-40 -32.5t-26 -60t-10.5 -93v-215h283v-114h-283v-793h-133v793h-207z" />
<glyph unicode="g" horiz-adv-x="1208" d="M88 455q0 128 58 235.5t166 172.5t245 65q118 0 213 -57.5t139 -155.5v192h133v-977q0 -251 -124 -364t-361 -113q-115 0 -203.5 34t-142 93.5t-81.5 132.5t-32 158h135q4 -61 24 -112.5t57.5 -94t99.5 -66.5t143 -24q172 0 262 84t90 272v263q-44 -99 -139 -157.5 t-213 -58.5q-137 0 -245 66t-166 174.5t-58 237.5zM221 455q0 -147 95.5 -251t246.5 -104q154 0 250 104t96 251q0 146 -96 249t-250 103q-151 0 -246.5 -103.5t-95.5 -248.5z" />
<glyph unicode="h" horiz-adv-x="1150" d="M170 0v1434h133v-723q40 97 130 157t214 60q184 0 273 -113q79 -98 79 -283v-532h-133v494q0 142 -65 228.5t-199 86.5q-97 0 -166.5 -51.5t-101 -127.5t-31.5 -165v-465h-133z" />
<glyph unicode="i" horiz-adv-x="473" d="M115 1262q0 54 35 89t86 35q54 0 89 -35t35 -89q0 -51 -35 -86t-89 -35q-51 0 -86 35t-35 86zM170 0v907h133v-907h-133z" />
<glyph unicode="j" horiz-adv-x="473" d="M-49 -395q56 -19 104 -19q54 0 84.5 41.5t30.5 114.5v1165h133v-1183q0 -133 -59.5 -200t-151.5 -67q-86 0 -141 25v123zM115 1262q0 53 35.5 88.5t87.5 35.5t87 -35t35 -89q0 -51 -35.5 -86t-86.5 -35t-87 35t-36 86z" />
<glyph unicode="k" horiz-adv-x="931" d="M170 0v1434h133v-953l426 426h174l-448 -454l448 -453h-174l-426 424v-424h-133z" />
<glyph unicode="l" horiz-adv-x="473" d="M170 0v1434h133v-1434h-133z" />
<glyph unicode="m" horiz-adv-x="1662" d="M170 0v907h133v-198q27 92 102.5 155.5t182.5 63.5q247 0 295 -226q26 95 110 160.5t195 65.5q159 0 240 -91.5t81 -265.5v-571h-135v535q0 138 -57 206t-158 68q-119 0 -185.5 -95t-66.5 -253v-461h-135v510q0 299 -215 299q-117 0 -185.5 -95.5t-68.5 -252.5v-461h-133 z" />
<glyph unicode="n" horiz-adv-x="1150" d="M170 0v907h133v-196q40 97 130 157t214 60q184 0 273 -113q79 -98 79 -283v-532h-133v494q0 142 -65 228.5t-199 86.5q-97 0 -166.5 -51.5t-101 -127.5t-31.5 -165v-465h-133z" />
<glyph unicode="o" horiz-adv-x="1130" d="M88 453q0 129 58 237t167.5 173t249.5 65q142 0 252.5 -65t168.5 -173t58 -237t-58 -236.5t-169 -173.5t-252 -66q-139 0 -249 66t-168 174t-58 236zM221 453q0 -146 95.5 -249.5t246.5 -103.5q154 0 250 103.5t96 249.5q0 147 -96 250.5t-250 103.5 q-151 0 -246.5 -103.5t-95.5 -250.5z" />
<glyph unicode="p" horiz-adv-x="1214" d="M170 -526v1433h133v-192q44 98 139 155.5t213 57.5q137 0 245 -65t166 -172.5t58 -235.5q0 -129 -58 -237.5t-166 -174.5t-245 -66q-118 0 -213 58.5t-139 157.5v-719h-133zM303 455q0 -147 96 -251t250 -104q151 0 246.5 104t95.5 251q0 145 -95.5 248.5t-246.5 103.5 q-154 0 -250 -103t-96 -249z" />
<glyph unicode="q" horiz-adv-x="1214" d="M90 455q0 128 58 235.5t166 172.5t245 65q118 0 213 -57.5t139 -155.5v192h133v-1433h-133v719q-44 -99 -139 -157.5t-213 -58.5q-137 0 -245 66t-166 174.5t-58 237.5zM223 455q0 -147 95.5 -251t246.5 -104q154 0 250 104t96 251q0 146 -96 249t-250 103 q-151 0 -246.5 -103.5t-95.5 -248.5z" />
<glyph unicode="r" horiz-adv-x="722" d="M170 0v907h133v-213q40 107 128.5 166.5t195.5 59.5q51 0 86 -15v-123q-46 13 -86 13q-80 0 -143.5 -31.5t-102 -86t-58.5 -124t-20 -150.5v-403h-133z" />
<glyph unicode="s" horiz-adv-x="921" d="M90 307h131q0 -115 69 -167t185 -52q103 0 160 40t57 114q0 25 -6.5 44t-24 35t-32 26t-48 22t-53 17.5t-66 18t-69.5 19.5q-39 10 -63 17t-56.5 19t-52 24t-41.5 30t-33.5 39.5t-19.5 51t-8 65.5q0 123 94 190.5t242 67.5q153 0 251.5 -81.5t98.5 -219.5h-131 q0 93 -58 142.5t-163 49.5q-92 0 -147.5 -40t-55.5 -111q0 -18 3 -33t12 -28t17 -22t25.5 -18.5t30 -15t38.5 -14t42.5 -13t50.5 -13.5t55 -15q134 -35 182 -61q111 -63 113 -191q0 -128 -93.5 -197.5t-256.5 -69.5q-106 0 -189.5 34t-136.5 110.5t-53 185.5z" />
<glyph unicode="t" horiz-adv-x="673" d="M41 793v114h182v336h135v-336h263v-114h-263v-463q0 -71 11.5 -116t36.5 -67t52 -29t68 -7q72 0 127 10v-121q-70 -12 -153 -12q-43 0 -75.5 4.5t-72.5 23t-66.5 50.5t-44.5 92.5t-18 144.5v490h-182z" />
<glyph unicode="u" horiz-adv-x="1146" d="M147 375v532h136v-493q0 -143 64 -229.5t198 -86.5q97 0 166.5 51.5t101 127.5t31.5 165v465h133v-907h-133v197q-40 -97 -130 -158.5t-214 -61.5q-182 0 -273 115q-80 99 -80 283z" />
<glyph unicode="v" horiz-adv-x="962" d="M14 907h146l319 -719l324 719h145l-422 -907h-96z" />
<glyph unicode="w" horiz-adv-x="1464" d="M16 907h144l254 -704l252 704h133l250 -704l256 704h143l-350 -907h-97l-270 758l-268 -758h-96z" />
<glyph unicode="x" horiz-adv-x="888" d="M47 0l320 455l-318 452h156l239 -348l240 348h154l-316 -452l320 -455h-156l-242 352l-241 -352h-156z" />
<glyph unicode="y" horiz-adv-x="1163" d="M154 -133h135q15 -299 289 -299q144 0 216 75t72 251v303q-41 -98 -129 -159t-211 -61q-99 0 -164 27.5t-114 83.5q-42 51 -60 119t-18 178v522h135v-483q0 -159 59 -242.5t205 -83.5q73 0 131 29.5t93.5 79t54 110t18.5 125.5v465h133v-1013q0 -229 -105.5 -335 t-318.5 -106q-412 0 -421 414z" />
<glyph unicode="z" horiz-adv-x="882" d="M53 0l543 786h-522v121h753l-542 -786h544v-121h-776z" />
<glyph unicode="{" horiz-adv-x="780" d="M113 494v112q27 0 57.5 11t60.5 32t50 58.5t20 83.5v550q0 68 25.5 124t66.5 90t90 52.5t99 18.5h127v-106h-99q-79 0 -126.5 -55t-47.5 -142v-549q0 -52 -18 -94t-47 -67.5t-58 -40t-59 -21.5q31 -7 59.5 -21.5t58 -41.5t47 -73t17.5 -106v-485q0 -87 47.5 -142 t126.5 -55h99v-106h-127q-51 0 -99.5 17.5t-90 51.5t-66.5 90t-25 125v490q0 50 -20 90t-50 62.5t-60.5 34.5t-57.5 12z" />
<glyph unicode="|" horiz-adv-x="473" d="M178 -479v2105h119v-2105h-119z" />
<glyph unicode="}" horiz-adv-x="780" d="M74 -373h96q79 0 126.5 55t47.5 142v485q0 60 17.5 106t47 73t58 41.5t59.5 21.5q-30 7 -59 21.5t-58 40t-47 67.5t-18 94v549q0 87 -47.5 142t-126.5 55h-96v106h125q69 0 131 -30.5t105.5 -97.5t43.5 -157v-550q0 -46 20 -83.5t50 -58.5t61 -32t58 -11v-112 q-27 0 -58 -12t-61 -34.5t-50 -62.5t-20 -90v-490q0 -69 -25 -125t-66 -90t-89.5 -51.5t-99.5 -17.5h-125v106z" />
<glyph unicode="~" horiz-adv-x="1044" d="M70 479v125q44 53 100 78t111 25q83 0 241 -66q13 -6 46.5 -20t51 -21t43 -16t45 -13t35.5 -4q106 0 226 111v-123q-46 -53 -106.5 -81t-121.5 -28q-45 0 -94.5 17t-134.5 55q-140 68 -238 68q-53 0 -107.5 -29.5t-96.5 -77.5z" />
<glyph unicode="&#xa1;" horiz-adv-x="579" d="M168 815q0 53 36 89t87 36q54 0 89.5 -35.5t35.5 -89.5q0 -51 -36 -87t-89 -36q-51 0 -87 36t-36 87zM219 502h146v-1030h-146v1030z" />
<glyph unicode="&#xa2;" horiz-adv-x="1122" d="M115 575q0 116 44.5 217.5t137 172.5t217.5 82v223h107v-223q90 -8 160 -41t112.5 -82.5t66 -106t29.5 -121.5h-133q-13 105 -82 169.5t-207 64.5q-77 0 -138.5 -29.5t-100.5 -79.5t-59.5 -113t-20.5 -133q0 -97 34 -175.5t109.5 -128.5t181.5 -50q234 0 287 211h133 q-21 -138 -114 -226.5t-258 -105.5v-221h-107v223q-126 11 -218.5 81.5t-136.5 172t-44 219.5z" />
<glyph unicode="&#xa3;" horiz-adv-x="1220" d="M74 729v107h139q0 24 -1 104t-1 92q0 180 128.5 300t319.5 120q199 0 326 -127t127 -321h-141q0 140 -83.5 230.5t-232.5 90.5q-122 0 -202 -65.5t-97 -176.5q-5 -17 -5.5 -41.5t-0.5 -40.5q0 -31 1 -87t1 -76h389v-107h-389q0 -285 -8 -334q-8 -194 -65 -270h716v-127 h-876v109q38 45 57 108.5t25 171.5q4 27 8 157.5t4 182.5h-139z" />
<glyph unicode="&#xa4;" horiz-adv-x="1587" d="M211 322l145 145q-96 125 -96 291t96 291l-145 145l86 86l143 -145q124 98 295 98q167 0 297 -96l142 141l86 -84l-144 -143q98 -125 98 -293q0 -169 -98 -293l144 -141l-86 -86l-142 141q-130 -96 -297 -96q-175 0 -293 98l-145 -143zM395 758q0 -147 94.5 -251 t245.5 -104q154 0 250 104t96 251t-96 250.5t-250 103.5q-151 0 -245.5 -103.5t-94.5 -250.5z" />
<glyph unicode="&#xa5;" horiz-adv-x="1239" d="M-29 1434h162l490 -736l481 736h162l-557 -850h329v-103h-352v-188h352v-107h-352v-186h-127v186h-348v107h348v188h-348v103h326z" />
<glyph unicode="&#xa6;" horiz-adv-x="473" d="M178 -479v964h119v-964h-119zM178 659v967h119v-967h-119z" />
<glyph unicode="&#xa7;" horiz-adv-x="1185" d="M102 569q0 109 64 188.5t170 102.5q-162 104 -162 291q0 163 129 260.5t326 97.5q196 0 323 -116.5t127 -296.5h-141q0 128 -85.5 211.5t-223.5 83.5q-141 0 -227.5 -61.5t-86.5 -178.5q0 -43 12 -78t38.5 -61.5t52.5 -45.5t70 -36t74 -27t81 -24q91 -26 152.5 -47 t124 -53t98 -68.5t58 -88t22.5 -116.5q0 -103 -68.5 -188t-157.5 -103q179 -95 179 -291q0 -169 -126.5 -260.5t-330.5 -91.5q-210 0 -345.5 122t-135.5 310h141q0 -136 94 -223.5t246 -87.5q315 0 315 231q0 110 -83.5 168.5t-270.5 106.5q-93 26 -153.5 47.5t-123 53 t-97.5 67.5t-57 87t-22 115zM246 582q0 -85 50.5 -133t176.5 -87q23 -10 123 -40.5t145 -42.5q86 5 150.5 69t64.5 146q0 89 -50.5 131t-180.5 86q-20 12 -252 82q-105 -4 -166 -66.5t-61 -144.5z" />
<glyph unicode="&#xa8;" horiz-adv-x="1060" d="M168 1329q0 50 34 84.5t85 34.5q49 0 84 -35t35 -84t-35 -84t-84 -35q-51 0 -85 34.5t-34 84.5zM639 1329q0 50 34 84.5t85 34.5q50 0 84.5 -35t34.5 -84t-34.5 -84t-84.5 -35q-51 0 -85 34.5t-34 84.5z" />
<glyph unicode="&#xa9;" horiz-adv-x="1652" d="M90 717q0 147 51 282t143.5 239.5t233 167t307.5 62.5q166 0 307 -62.5t234 -167t145 -240t52 -281.5t-52 -281.5t-145 -240.5t-234 -167.5t-307 -62.5q-134 0 -252 40.5t-205.5 112t-150.5 166.5t-95 205.5t-32 227.5zM203 717q0 -129 43.5 -247.5t121.5 -210.5 t197 -147t260 -55t260.5 55t198 147t122.5 210.5t44 247.5t-44 247.5t-122.5 210t-198 146.5t-260.5 55t-260 -55t-197 -146.5t-121.5 -210t-43.5 -247.5zM403 719q0 84 29 161.5t82 137t132.5 95.5t174.5 36q170 0 271 -81.5t127 -215.5h-97q-26 96 -102.5 153.5 t-198.5 57.5q-146 0 -233.5 -101.5t-87.5 -242.5q0 -145 92 -245.5t246 -100.5q97 0 172 47.5t108 124.5h101q-33 -113 -137.5 -186.5t-243.5 -73.5q-198 0 -316.5 125.5t-118.5 308.5z" />
<glyph unicode="&#xaa;" horiz-adv-x="1212" d="M88 453q0 198 131.5 336.5t337.5 138.5q118 0 213 -57.5t139 -155.5v192h133v-907h-133v190q-45 -97 -139.5 -155t-212.5 -58q-103 0 -191.5 38.5t-149 103.5t-94.5 151.5t-34 182.5zM221 453q0 -146 95.5 -249.5t246.5 -103.5q154 0 250 103.5t96 249.5q0 147 -96 250.5 t-250 103.5q-151 0 -246.5 -103.5t-95.5 -250.5z" />
<glyph unicode="&#xab;" horiz-adv-x="966" d="M82 553v86l401 348v-137l-290 -254l290 -254v-137zM483 553v86l402 348v-137l-291 -254l291 -254v-137z" />
<glyph unicode="&#xac;" d="M170 606v119h827v-418h-133v299h-694z" />
<glyph unicode="&#xad;" horiz-adv-x="602" d="M61 563v41h480v-41h-480z" />
<glyph unicode="&#xae;" horiz-adv-x="1662" d="M90 717q0 146 52 281.5t145 240t234.5 167t309.5 62.5t309.5 -62.5t235 -167t145.5 -240t52 -281.5t-52 -281.5t-145.5 -240.5t-235 -167.5t-309.5 -62.5q-135 0 -253.5 40.5t-207 112t-152 166.5t-96 205.5t-32.5 227.5zM203 717q0 -129 44 -247.5t123 -210.5t199 -147 t262 -55t262.5 55t199.5 147t123 210.5t44 247.5t-44 247.5t-123 210t-199.5 146.5t-262.5 55t-262 -55t-199 -146.5t-123 -210t-44 -247.5zM575 326v833h310q121 0 197.5 -81t76.5 -197q0 -94 -51.5 -165t-140.5 -95l186 -295h-113l-180 282h-184v-282h-101zM676 698h198 q82 0 131.5 52.5t49.5 130.5q0 80 -49 134t-132 54h-198v-371z" />
<glyph unicode="&#xaf;" horiz-adv-x="1083" d="M176 1481v121h733v-121h-733z" />
<glyph unicode="&#xb0;" horiz-adv-x="677" d="M45 1176q0 123 85 207.5t208 84.5t208 -84.5t85 -207.5t-85 -208t-208 -85t-208 85t-85 208zM145 1176q0 -81 56.5 -138t136.5 -57q81 0 136.5 56.5t55.5 138.5q0 80 -55.5 137t-136.5 57q-79 0 -136 -57t-57 -137z" />
<glyph unicode="&#xb1;" d="M180 98v119h807v-119h-807zM180 795v120h336v347h133v-347h338v-120h-338v-342h-133v342h-336z" />
<glyph unicode="&#xb2;" horiz-adv-x="743" d="M113 645q0 123 27.5 200.5t73.5 118t128 76.5q91 41 134.5 80.5t43.5 108.5q0 60 -37.5 94.5t-103.5 34.5q-70 0 -111 -43t-41 -117h-112q0 111 71.5 180.5t192.5 69.5q113 0 183.5 -59.5t70.5 -167.5q0 -41 -14 -76.5t-33.5 -60t-50.5 -47.5t-55.5 -36.5t-57.5 -29.5 q-104 -48 -142 -96.5t-38 -135.5h393v-94h-522z" />
<glyph unicode="&#xb3;" horiz-adv-x="763" d="M98 885h113q0 -73 45 -116.5t119 -43.5q72 0 113.5 39.5t41.5 101.5q0 65 -40.5 104.5t-116.5 39.5h-68v90h68q72 0 108.5 34.5t36.5 96.5q0 60 -37.5 93.5t-103.5 33.5q-73 0 -110.5 -38t-37.5 -106h-112q0 103 66 168.5t190 65.5q113 0 185.5 -57.5t72.5 -157.5 q0 -68 -37 -116t-98 -62q67 -18 107 -69.5t40 -125.5q0 -104 -75.5 -166.5t-190.5 -62.5q-128 0 -203.5 70t-75.5 184z" />
<glyph unicode="&#xb4;" horiz-adv-x="858" d="M84 1210l510 281l65 -107l-509 -280z" />
<glyph unicode="&#xb5;" d="M168 -526v1433h135v-493q0 -143 64 -229.5t198 -86.5q97 0 166.5 51.5t101 127.5t31.5 165v465h133v-907h-133v197q-40 -97 -130 -158.5t-214 -61.5q-142 0 -217 97v-600h-135z" />
<glyph unicode="&#xb6;" horiz-adv-x="1308" d="M31 1065q0 74 19.5 135.5t50.5 102.5t75.5 72t89 48t97 28t93.5 14t85 3h626v-114h-108v-1657h-127v1655h-332v-1655h-127v977q-199 0 -320.5 99t-121.5 292z" />
<glyph unicode="&#xb7;" horiz-adv-x="471" d="M113 639q0 54 34.5 88.5t85.5 34.5q54 0 89.5 -34.5t35.5 -88.5q0 -51 -35.5 -86t-89.5 -35q-51 0 -85.5 35t-34.5 86z" />
<glyph unicode="&#xb8;" horiz-adv-x="827" d="M236 -297h86q5 -46 33.5 -75t74.5 -29q53 0 83 32.5t30 83.5q0 48 -31 78.5t-80 30.5q-65 0 -96 -66h-76v242h92v-158q35 54 103 54q74 0 125 -50.5t51 -130.5q0 -79 -54 -136.5t-147 -57.5q-66 0 -126.5 45t-67.5 137z" />
<glyph unicode="&#xb9;" horiz-adv-x="518" d="M96 1217v81q101 0 136.5 31.5t35.5 104.5h103v-789h-115v572h-160z" />
<glyph unicode="&#xba;" horiz-adv-x="1130" d="M88 453q0 129 58 237t167.5 173t249.5 65q142 0 252.5 -65t168.5 -173t58 -237t-58 -236.5t-169 -173.5t-252 -66q-139 0 -249 66t-168 174t-58 236zM221 453q0 -146 95.5 -249.5t246.5 -103.5q154 0 250 103.5t96 249.5q0 147 -96 250.5t-250 103.5 q-151 0 -246.5 -103.5t-95.5 -250.5z" />
<glyph unicode="&#xbb;" horiz-adv-x="966" d="M82 205v137l291 254l-291 254v137l401 -348v-86zM483 205v137l291 254l-291 254v137l402 -348v-86z" />
<glyph unicode="&#xbc;" horiz-adv-x="1808" d="M125 1217v81q101 0 136.5 31.5t35.5 104.5h100v-789h-114v572h-158zM326 -70l821 1635l108 -60l-821 -1634zM1114 254v534h113v-436h198v238h113v-238h119v-98h-119v-254h-113v254h-311z" />
<glyph unicode="&#xbd;" horiz-adv-x="1808" d="M125 1217v81q101 0 136.5 31.5t35.5 104.5h100v-789h-114v572h-158zM326 -70l821 1635l108 -60l-821 -1634zM1112 0q0 123 27 200.5t72.5 118t127.5 76.5q90 39 135.5 79.5t45.5 109.5q0 60 -38.5 94.5t-105.5 34.5q-68 0 -109.5 -43t-41.5 -117h-113q0 111 71.5 180.5 t192.5 69.5q113 0 183.5 -60t70.5 -168q0 -51 -18 -91.5t-54 -71t-64.5 -47.5t-74.5 -39q-104 -48 -142 -96.5t-38 -135.5h393v-94h-520z" />
<glyph unicode="&#xbe;" horiz-adv-x="1808" d="M96 885h115q0 -73 45 -116.5t119 -43.5q71 0 113 40t42 101q0 65 -41 104.5t-118 39.5h-66v90h66q73 0 110 34.5t37 96.5q0 60 -38.5 93.5t-104.5 33.5q-73 0 -110.5 -38t-37.5 -106h-112q0 103 67 168.5t191 65.5q112 0 184 -57.5t72 -157.5q0 -69 -36.5 -116.5 t-98.5 -61.5q67 -18 108 -69.5t41 -125.5q0 -102 -76.5 -165.5t-191.5 -63.5q-128 0 -203.5 70t-75.5 184zM360 -70l822 1635l108 -60l-821 -1634zM1114 254v534h113v-436h198v238h113v-238h119v-98h-119v-254h-113v254h-311z" />
<glyph unicode="&#xbf;" horiz-adv-x="1017" d="M84 -164q0 60 17 114t38 88.5t58 70t58 51t56 39.5q45 30 69.5 49t50 46.5t37 57t19 71.5t7.5 99h135q0 -150 -46 -233.5t-153 -151.5q-30 -20 -38 -25t-37 -27.5t-41 -35.5t-33.5 -39.5t-31 -49.5t-18 -56t-8.5 -68q0 -127 77.5 -193.5t219.5 -66.5q140 0 225.5 87.5 t85.5 234.5h142q0 -201 -127.5 -325t-325.5 -124q-199 0 -317.5 104.5t-118.5 282.5zM432 803q0 54 37.5 90.5t91.5 36.5t89.5 -36.5t35.5 -90.5t-35.5 -90.5t-89.5 -36.5t-91.5 36.5t-37.5 90.5z" />
<glyph unicode="&#xc0;" horiz-adv-x="1118" d="M12 0l494 1434h106l494 -1434h-148l-88 256h-622l-88 -256h-148zM291 383h536l-268 827zM297 1815l63 108l510 -281l-63 -108z" />
<glyph unicode="&#xc1;" horiz-adv-x="1118" d="M12 0l494 1434h106l494 -1434h-148l-88 256h-622l-88 -256h-148zM274 1620l510 281l64 -107l-510 -281zM291 383h536l-268 827z" />
<glyph unicode="&#xc2;" horiz-adv-x="1118" d="M12 0l494 1434h106l494 -1434h-148l-88 256h-622l-88 -256h-148zM201 1622l358 309l359 -309l-78 -88l-281 248l-278 -248zM291 383h536l-268 827z" />
<glyph unicode="&#xc3;" horiz-adv-x="1118" d="M12 0l494 1434h106l494 -1434h-148l-88 256h-622l-88 -256h-148zM190 1683q41 78 102.5 117t131.5 39q46 0 89 -17t69.5 -37t60.5 -37t64 -17q45 0 80 30t57 78l100 -49q-39 -83 -102 -124.5t-133 -41.5q-46 0 -89.5 17t-71.5 37.5t-61.5 37.5t-62.5 17q-88 0 -135 -109z M291 383h536l-268 827z" />
<glyph unicode="&#xc4;" horiz-adv-x="1118" d="M12 0l494 1434h106l494 -1434h-148l-88 256h-622l-88 -256h-148zM203 1702q0 54 35 89.5t86 35.5q54 0 89.5 -35.5t35.5 -89.5q0 -51 -35.5 -86t-89.5 -35q-51 0 -86 35t-35 86zM291 383h536l-268 827zM674 1702q0 54 35 89.5t86 35.5q54 0 89.5 -35.5t35.5 -89.5 q0 -51 -35.5 -86t-89.5 -35q-51 0 -86 35t-35 86z" />
<glyph unicode="&#xc5;" horiz-adv-x="1118" d="M12 0l494 1434h106l494 -1434h-148l-88 256h-622l-88 -256h-148zM291 383h536l-268 827zM309 1747q0 104 74 178t178 74t178 -74.5t74 -177.5t-74 -177.5t-178 -74.5t-178 74.5t-74 177.5zM401 1747q0 -66 46.5 -113t113.5 -47q66 0 113 48t47 114q0 65 -46.5 112.5 t-113.5 47.5t-113.5 -47.5t-46.5 -114.5z" />
<glyph unicode="&#xc6;" horiz-adv-x="1734" d="M4 0l717 1434h850v-127h-643v-531h643v-127h-643v-522h643v-127h-783v256h-503l-127 -256h-154zM346 385h442v893z" />
<glyph unicode="&#xc7;" horiz-adv-x="1587" d="M88 719q0 115 31.5 225t94 204t148.5 164.5t202 111t247 40.5q148 0 270 -39.5t206 -109.5t137.5 -162t76.5 -203h-145q-44 173 -179.5 280t-349.5 107q-110 0 -206.5 -33.5t-167 -91.5t-121 -136t-76 -169t-25.5 -188q0 -101 26.5 -194t80 -171t127.5 -135.5t174 -90 t215 -32.5q167 0 305.5 91.5t188.5 234.5h153q-59 -194 -233 -321.5t-410 -131.5q-8 0 -18 1t-15 1v-118q35 47 111 47q70 0 117 -47t47 -121t-53 -127.5t-146 -53.5q-60 0 -119.5 39t-70.5 119h88q8 -36 35 -58t67 -22q50 0 80.5 29.5t30.5 73.5t-28.5 73t-74.5 29 q-69 0 -100 -59h-76v200q-196 24 -344.5 131t-224.5 266t-76 347z" />
<glyph unicode="&#xc8;" horiz-adv-x="1112" d="M170 0v1434h782v-127h-643v-531h643v-127h-643v-522h643v-127h-782zM299 1796l66 107l509 -281l-65 -106z" />
<glyph unicode="&#xc9;" horiz-adv-x="1112" d="M170 0v1434h782v-127h-643v-531h643v-127h-643v-522h643v-127h-782zM289 1642l510 281l65 -108l-510 -281z" />
<glyph unicode="&#xca;" horiz-adv-x="1112" d="M170 0v1434h782v-127h-643v-531h643v-127h-643v-522h643v-127h-782zM213 1622l358 309l361 -309l-78 -88l-281 248l-280 -248z" />
<glyph unicode="&#xcb;" horiz-adv-x="1112" d="M170 0v1434h782v-127h-643v-531h643v-127h-643v-522h643v-127h-782zM217 1702q0 54 35 89.5t86 35.5q54 0 89.5 -35.5t35.5 -89.5q0 -51 -35.5 -86t-89.5 -35q-51 0 -86 35t-35 86zM688 1702q0 54 35 89.5t86 35.5q54 0 89.5 -35.5t35.5 -89.5q0 -51 -35.5 -86t-89.5 -35 q-51 0 -86 35t-35 86z" />
<glyph unicode="&#xcc;" horiz-adv-x="483" d="M-45 1794l63 107l510 -281l-63 -107zM170 0v1434h143v-1434h-143z" />
<glyph unicode="&#xcd;" horiz-adv-x="483" d="M-45 1622l510 281l63 -107l-510 -280zM170 0v1434h143v-1434h-143z" />
<glyph unicode="&#xce;" horiz-adv-x="483" d="M-117 1622l359 309l358 -309l-78 -88l-280 248l-279 -248zM170 0v1434h143v-1434h-143z" />
<glyph unicode="&#xcf;" horiz-adv-x="483" d="M-113 1702q0 54 35.5 89.5t87.5 35.5t87.5 -35.5t35.5 -89.5q0 -51 -36 -86t-87 -35t-87 35t-36 86zM170 0v1434h143v-1434h-143zM358 1702q0 54 36 89.5t87 35.5t87 -35.5t36 -89.5q0 -51 -36 -86t-87 -35t-87 35t-36 86z" />
<glyph unicode="&#xd0;" horiz-adv-x="1421" d="M-59 666v104h229v664h420q137 0 257 -40t207.5 -109t151.5 -160t95.5 -195.5t31.5 -212.5t-31.5 -212.5t-95.5 -195.5t-151.5 -160t-207.5 -109t-257 -40h-420v666h-229zM309 127h281q139 0 254.5 50t190 133t115 188.5t40.5 218.5t-40.5 218.5t-115 188.5t-190 133 t-254.5 50h-281v-537h240v-104h-240v-539z" />
<glyph unicode="&#xd1;" horiz-adv-x="1355" d="M170 0v1434h156l718 -1192v1192h142v-1434h-156l-721 1192v-1192h-139zM301 1683q39 78 101.5 117t132.5 39q46 0 89 -17t69.5 -37t59.5 -37t62 -17q90 0 139 108l101 -49q-39 -82 -103.5 -124t-134.5 -42q-45 0 -88 17t-70.5 37.5t-61 37.5t-62.5 17q-89 0 -136 -109z " />
<glyph unicode="&#xd2;" horiz-adv-x="1650" d="M88 717q0 116 32 226t95 204t150.5 165t206 111.5t253.5 40.5q112 0 213 -28.5t181.5 -79t145.5 -120.5t108.5 -153t66.5 -176t23 -190q0 -146 -52 -280.5t-145 -238.5t-234 -166.5t-307 -62.5q-168 0 -309 62.5t-233.5 166.5t-143.5 238.5t-51 280.5zM233 717 q0 -120 41.5 -231.5t115.5 -198.5t187.5 -139t247.5 -52q133 0 246.5 52t188 139t116 198.5t41.5 231.5t-41.5 231.5t-116 198t-188 138.5t-246.5 52q-134 0 -247.5 -52t-187.5 -138.5t-115.5 -198t-41.5 -231.5zM518 1815l64 108l510 -281l-64 -108z" />
<glyph unicode="&#xd3;" horiz-adv-x="1650" d="M88 717q0 116 32 226t95 204t150.5 165t206 111.5t253.5 40.5q112 0 213 -28.5t181.5 -79t145.5 -120.5t108.5 -153t66.5 -176t23 -190q0 -146 -52 -280.5t-145 -238.5t-234 -166.5t-307 -62.5q-168 0 -309 62.5t-233.5 166.5t-143.5 238.5t-51 280.5zM233 717 q0 -120 41.5 -231.5t115.5 -198.5t187.5 -139t247.5 -52q133 0 246.5 52t188 139t116 198.5t41.5 231.5t-41.5 231.5t-116 198t-188 138.5t-246.5 52q-134 0 -247.5 -52t-187.5 -138.5t-115.5 -198t-41.5 -231.5zM553 1642l510 281l63 -108l-510 -281z" />
<glyph unicode="&#xd4;" horiz-adv-x="1650" d="M88 717q0 116 32 226t95 204t150.5 165t206 111.5t253.5 40.5q112 0 213 -28.5t181.5 -79t145.5 -120.5t108.5 -153t66.5 -176t23 -190q0 -146 -52 -280.5t-145 -238.5t-234 -166.5t-307 -62.5q-168 0 -309 62.5t-233.5 166.5t-143.5 238.5t-51 280.5zM233 717 q0 -120 41.5 -231.5t115.5 -198.5t187.5 -139t247.5 -52q133 0 246.5 52t188 139t116 198.5t41.5 231.5t-41.5 231.5t-116 198t-188 138.5t-246.5 52q-134 0 -247.5 -52t-187.5 -138.5t-115.5 -198t-41.5 -231.5zM467 1622l358 309l361 -309l-78 -88l-283 248l-278 -248z " />
<glyph unicode="&#xd5;" horiz-adv-x="1650" d="M88 717q0 116 32 226t95 204t150.5 165t206 111.5t253.5 40.5q112 0 213 -28.5t181.5 -79t145.5 -120.5t108.5 -153t66.5 -176t23 -190q0 -146 -52 -280.5t-145 -238.5t-234 -166.5t-307 -62.5q-168 0 -309 62.5t-233.5 166.5t-143.5 238.5t-51 280.5zM233 717 q0 -120 41.5 -231.5t115.5 -198.5t187.5 -139t247.5 -52q133 0 246.5 52t188 139t116 198.5t41.5 231.5t-41.5 231.5t-116 198t-188 138.5t-246.5 52q-134 0 -247.5 -52t-187.5 -138.5t-115.5 -198t-41.5 -231.5zM457 1683q40 79 101 117.5t132 38.5q46 0 89 -17t70 -37 t60 -37t62 -17q45 0 81 30.5t56 77.5l102 -49q-39 -82 -103 -124t-134 -42q-46 0 -89.5 17t-71 37.5t-61 37.5t-61.5 17q-90 0 -137 -109z" />
<glyph unicode="&#xd6;" horiz-adv-x="1650" d="M88 717q0 116 32 226t95 204t150.5 165t206 111.5t253.5 40.5q112 0 213 -28.5t181.5 -79t145.5 -120.5t108.5 -153t66.5 -176t23 -190q0 -146 -52 -280.5t-145 -238.5t-234 -166.5t-307 -62.5q-168 0 -309 62.5t-233.5 166.5t-143.5 238.5t-51 280.5zM233 717 q0 -120 41.5 -231.5t115.5 -198.5t187.5 -139t247.5 -52q133 0 246.5 52t188 139t116 198.5t41.5 231.5t-41.5 231.5t-116 198t-188 138.5t-246.5 52q-134 0 -247.5 -52t-187.5 -138.5t-115.5 -198t-41.5 -231.5zM467 1702q0 54 35 89.5t86 35.5q54 0 89.5 -35.5t35.5 -89.5 q0 -51 -35.5 -86t-89.5 -35q-51 0 -86 35t-35 86zM938 1702q0 54 35 89.5t86 35.5q54 0 89.5 -35.5t35.5 -89.5q0 -51 -35.5 -86t-89.5 -35q-51 0 -86 35t-35 86z" />
<glyph unicode="&#xd7;" d="M244 338l248 250l-244 246l86 86l244 -246l249 250l95 -95l-250 -249l246 -246l-87 -86l-243 246l-250 -250z" />
<glyph unicode="&#xd8;" horiz-adv-x="1650" d="M88 717q0 116 32 226t95 204t150.5 165t206 111.5t253.5 40.5q126 0 232 -34l67 153l97 -43l-64 -151q191 -94 298.5 -275.5t107.5 -396.5q0 -146 -52 -280.5t-145 -238.5t-234 -166.5t-307 -62.5q-142 0 -258 43l-71 -166l-99 41l72 168q-180 97 -280.5 275t-100.5 387z M233 717q0 -167 76.5 -310t212.5 -227l484 1129q-86 28 -181 28q-134 0 -247.5 -52t-187.5 -138.5t-115.5 -198t-41.5 -231.5zM618 133q90 -37 207 -37q133 0 246.5 52t188 139t116 198.5t41.5 231.5q0 173 -84 322.5t-231 226.5z" />
<glyph unicode="&#xd9;" horiz-adv-x="1265" d="M150 451v983h139v-983q0 -147 95.5 -251t246.5 -104q154 0 250 104t96 251v983h139v-983q0 -97 -35 -185t-96.5 -153.5t-153.5 -104.5t-200 -39q-141 0 -252.5 66.5t-170 176t-58.5 239.5zM360 1815l64 108l510 -281l-64 -108z" />
<glyph unicode="&#xda;" horiz-adv-x="1265" d="M150 451v983h139v-983q0 -147 95.5 -251t246.5 -104q154 0 250 104t96 251v983h139v-983q0 -97 -35 -185t-96.5 -153.5t-153.5 -104.5t-200 -39q-141 0 -252.5 66.5t-170 176t-58.5 239.5zM319 1642l510 281l66 -108l-510 -281z" />
<glyph unicode="&#xdb;" horiz-adv-x="1265" d="M150 451v983h139v-983q0 -147 95.5 -251t246.5 -104q154 0 250 104t96 251v983h139v-983q0 -97 -35 -185t-96.5 -153.5t-153.5 -104.5t-200 -39q-141 0 -252.5 66.5t-170 176t-58.5 239.5zM272 1624l359 307l358 -307l-78 -90l-280 250l-279 -248z" />
<glyph unicode="&#xdc;" horiz-adv-x="1265" d="M150 451v983h139v-983q0 -147 95.5 -251t246.5 -104q154 0 250 104t96 251v983h139v-983q0 -97 -35 -185t-96.5 -153.5t-153.5 -104.5t-200 -39q-141 0 -252.5 66.5t-170 176t-58.5 239.5zM272 1702q0 54 36 89.5t87 35.5t87 -35.5t36 -89.5q0 -51 -36 -86t-87 -35 t-87 35t-36 86zM743 1702q0 54 34.5 89.5t88.5 35.5q52 0 87.5 -35.5t35.5 -89.5q0 -51 -36 -86t-87 -35q-54 0 -88.5 34.5t-34.5 86.5z" />
<glyph unicode="&#xdd;" d="M18 1434h162l455 -723l371 723h153l-731 -1434h-154l289 567zM365 1649l509 280l66 -106l-510 -281z" />
<glyph unicode="&#xde;" horiz-adv-x="1021" d="M170 0v1434h127v-273h192q142 0 251 -64.5t163.5 -166.5t54.5 -223q0 -89 -32.5 -170.5t-91 -144.5t-148.5 -100.5t-197 -37.5h-192v-254h-127zM297 369h192q154 0 247 99t93 239t-93 238.5t-247 98.5h-192v-675z" />
<glyph unicode="&#xdf;" horiz-adv-x="1142" d="M150 0v1049q0 184 117 296.5t311 112.5q189 0 310.5 -106.5t121.5 -276.5q0 -128 -70 -215.5t-195 -116.5q133 -29 216 -126t83 -226q0 -131 -63.5 -227t-167 -142.5t-231.5 -46.5q-97 0 -170 25v121q86 -25 170 -25q143 0 236 79t93 216q0 54 -22 105.5t-62.5 93.5 t-104.5 68t-142 26h-99v121h94q142 0 222 77t80 193q0 118 -82 190t-217 72t-215 -79t-80 -209v-1049h-133z" />
<glyph unicode="&#xe0;" horiz-adv-x="1212" d="M88 453q0 198 131.5 336.5t337.5 138.5q118 0 213 -57.5t139 -155.5v192h133v-907h-133v190q-45 -97 -139.5 -155t-212.5 -58q-103 0 -191.5 38.5t-149 103.5t-94.5 151.5t-34 182.5zM221 453q0 -146 95.5 -249.5t246.5 -103.5q154 0 250 103.5t96 249.5q0 147 -96 250.5 t-250 103.5q-151 0 -246.5 -103.5t-95.5 -250.5zM274 1325l64 107l510 -281l-64 -107z" />
<glyph unicode="&#xe1;" horiz-adv-x="1212" d="M88 453q0 198 131.5 336.5t337.5 138.5q118 0 213 -57.5t139 -155.5v192h133v-907h-133v190q-45 -97 -139.5 -155t-212.5 -58q-103 0 -191.5 38.5t-149 103.5t-94.5 151.5t-34 182.5zM221 453q0 -146 95.5 -249.5t246.5 -103.5q154 0 250 103.5t96 249.5q0 147 -96 250.5 t-250 103.5q-151 0 -246.5 -103.5t-95.5 -250.5zM281 1151l510 281l63 -107l-510 -281z" />
<glyph unicode="&#xe2;" horiz-adv-x="1212" d="M88 453q0 198 131.5 336.5t337.5 138.5q118 0 213 -57.5t139 -155.5v192h133v-907h-133v190q-45 -97 -139.5 -155t-212.5 -58q-103 0 -191.5 38.5t-149 103.5t-94.5 151.5t-34 182.5zM217 1184l358 307l359 -307l-78 -90l-281 249l-278 -247zM221 453q0 -146 95.5 -249.5 t246.5 -103.5q154 0 250 103.5t96 249.5q0 147 -96 250.5t-250 103.5q-151 0 -246.5 -103.5t-95.5 -250.5z" />
<glyph unicode="&#xe3;" horiz-adv-x="1212" d="M88 453q0 198 131.5 336.5t337.5 138.5q118 0 213 -57.5t139 -155.5v192h133v-907h-133v190q-45 -97 -139.5 -155t-212.5 -58q-103 0 -191.5 38.5t-149 103.5t-94.5 151.5t-34 182.5zM221 453q0 -146 95.5 -249.5t246.5 -103.5q154 0 250 103.5t96 249.5q0 147 -96 250.5 t-250 103.5q-151 0 -246.5 -103.5t-95.5 -250.5zM223 1227q41 79 103 118t131 39q46 0 88.5 -17t69.5 -38t60.5 -38t63.5 -17q45 0 80.5 31t57.5 79l100 -49q-39 -84 -102.5 -126t-133.5 -42q-46 0 -89.5 17.5t-71 38t-61 38t-62.5 17.5q-87 0 -135 -111z" />
<glyph unicode="&#xe4;" horiz-adv-x="1212" d="M88 453q0 198 131.5 336.5t337.5 138.5q118 0 213 -57.5t139 -155.5v192h133v-907h-133v190q-45 -97 -139.5 -155t-212.5 -58q-103 0 -191.5 38.5t-149 103.5t-94.5 151.5t-34 182.5zM203 1239q0 54 34.5 89.5t88.5 35.5q52 0 87.5 -36t35.5 -89q0 -51 -36 -86t-87 -35 q-54 0 -88.5 35t-34.5 86zM221 453q0 -146 95.5 -249.5t246.5 -103.5q154 0 250 103.5t96 249.5q0 147 -96 250.5t-250 103.5q-151 0 -246.5 -103.5t-95.5 -250.5zM674 1239q0 54 34.5 89.5t88.5 35.5q51 0 87 -36t36 -89q0 -51 -36 -86t-87 -35q-53 0 -88 35t-35 86z" />
<glyph unicode="&#xe5;" horiz-adv-x="1212" d="M88 453q0 198 131.5 336.5t337.5 138.5q118 0 213 -57.5t139 -155.5v192h133v-907h-133v190q-45 -97 -139.5 -155t-212.5 -58q-103 0 -191.5 38.5t-149 103.5t-94.5 151.5t-34 182.5zM221 453q0 -146 95.5 -249.5t246.5 -103.5q154 0 250 103.5t96 249.5q0 147 -96 250.5 t-250 103.5q-151 0 -246.5 -103.5t-95.5 -250.5zM309 1280q0 106 76 182t180 76q105 0 181.5 -76.5t76.5 -181.5t-76.5 -181.5t-181.5 -76.5q-104 0 -180 77t-76 181zM397 1280q0 -69 49.5 -118.5t118.5 -49.5q72 0 120 49t48 121q0 70 -48.5 119t-119.5 49q-72 0 -120 -49 t-48 -121z" />
<glyph unicode="&#xe6;" horiz-adv-x="1875" d="M88 453q0 198 131.5 336.5t337.5 138.5q118 0 213 -57.5t139 -155.5v192h133v-125q49 68 129 107t183 39q177 0 298.5 -117t121.5 -289q0 -48 -7 -98h-723q0 -146 81 -238t235 -92q108 0 173.5 46t92.5 120h137q-26 -117 -135.5 -200t-267.5 -83q-106 0 -187 41t-131 111 v-129h-133v190q-45 -97 -139.5 -155t-212.5 -58q-103 0 -191.5 38.5t-149 103.5t-94.5 151.5t-34 182.5zM221 453q0 -146 95.5 -249.5t246.5 -103.5q154 0 250 103.5t96 249.5q0 151 -96 252.5t-250 101.5q-151 0 -246.5 -103.5t-95.5 -250.5zM1047 528h595q0 127 -82.5 206 t-207.5 79q-134 0 -216.5 -77.5t-88.5 -207.5z" />
<glyph unicode="&#xe7;" horiz-adv-x="1073" d="M94 455q0 93 30 178t85.5 151.5t143 106t194.5 39.5q105 0 186 -30.5t130 -82.5t75.5 -112.5t32.5 -129.5h-133q-13 105 -82 169.5t-207 64.5q-101 0 -175.5 -51t-109.5 -129.5t-35 -173.5q0 -72 20.5 -135t59.5 -112.5t102.5 -78.5t143.5 -29q234 0 287 211h133 q-22 -144 -125 -235.5t-283 -95.5h-26v-127q35 47 110 47q70 0 117 -47t47 -121t-52.5 -127.5t-144.5 -53.5q-60 0 -120.5 39t-71.5 119h88q8 -36 35 -58t69 -22q49 0 79 29.5t30 73.5t-28 73t-74 29q-70 0 -101 -59h-75v213q-167 33 -261 164t-94 303z" />
<glyph unicode="&#xe8;" horiz-adv-x="1062" d="M94 455q0 208 119 340.5t328 132.5q177 0 298.5 -117t121.5 -289q0 -48 -7 -98h-727q5 -144 84 -237t236 -93q106 0 173.5 46.5t92.5 119.5h135q-26 -118 -134 -200.5t-267 -82.5q-111 0 -199 38t-142.5 104.5t-83 152t-28.5 183.5zM229 528h600q0 132 -82.5 213.5 t-207.5 81.5q-136 0 -220 -79.5t-90 -215.5zM276 1325l64 107l510 -281l-64 -107z" />
<glyph unicode="&#xe9;" horiz-adv-x="1062" d="M94 455q0 208 119 340.5t328 132.5q177 0 298.5 -117t121.5 -289q0 -48 -7 -98h-727q5 -144 84 -237t236 -93q106 0 173.5 46.5t92.5 119.5h135q-26 -118 -134 -200.5t-267 -82.5q-111 0 -199 38t-142.5 104.5t-83 152t-28.5 183.5zM229 528h600q0 132 -82.5 213.5 t-207.5 81.5q-136 0 -220 -79.5t-90 -215.5zM231 1151l510 281l64 -107l-510 -281z" />
<glyph unicode="&#xea;" horiz-adv-x="1062" d="M94 455q0 208 119 340.5t328 132.5q177 0 298.5 -117t121.5 -289q0 -48 -7 -98h-727q5 -144 84 -237t236 -93q106 0 173.5 46.5t92.5 119.5h135q-26 -118 -134 -200.5t-267 -82.5q-111 0 -199 38t-142.5 104.5t-83 152t-28.5 183.5zM180 1184l359 307l358 -307l-78 -90 l-280 249l-279 -247zM229 528h600q0 132 -82.5 213.5t-207.5 81.5q-136 0 -220 -79.5t-90 -215.5z" />
<glyph unicode="&#xeb;" horiz-adv-x="1062" d="M94 455q0 208 119 340.5t328 132.5q177 0 298.5 -117t121.5 -289q0 -48 -7 -98h-727q5 -144 84 -237t236 -93q106 0 173.5 46.5t92.5 119.5h135q-26 -118 -134 -200.5t-267 -82.5q-111 0 -199 38t-142.5 104.5t-83 152t-28.5 183.5zM180 1239q0 51 35 87t86 36 q53 0 88 -35.5t35 -87.5q0 -54 -34.5 -88.5t-88.5 -34.5q-51 0 -86 35t-35 88zM229 528h600q0 132 -82.5 213.5t-207.5 81.5q-136 0 -220 -79.5t-90 -215.5zM651 1239q0 51 35 87t86 36q53 0 88 -35.5t35 -87.5q0 -54 -34.5 -88.5t-88.5 -34.5q-52 0 -86.5 35t-34.5 88z" />
<glyph unicode="&#xec;" horiz-adv-x="473" d="M-49 1346l63 106l510 -281l-63 -106zM170 0v907h133v-907h-133z" />
<glyph unicode="&#xed;" horiz-adv-x="473" d="M-49 1171l510 281l63 -106l-510 -281zM170 0v907h133v-907h-133z" />
<glyph unicode="&#xee;" horiz-adv-x="473" d="M-121 1184l357 307l360 -307l-78 -90l-280 249l-279 -247zM170 0v907h133v-907h-133z" />
<glyph unicode="&#xef;" horiz-adv-x="473" d="M-88 1239q0 54 35 89.5t86 35.5q54 0 88.5 -35.5t34.5 -89.5q0 -51 -35 -86t-88 -35q-51 0 -86 35t-35 86zM170 0v907h133v-907h-133zM340 1239q0 54 34.5 89.5t88.5 35.5q51 0 87 -36t36 -89q0 -51 -36 -86t-87 -35q-53 0 -88 35t-35 86z" />
<glyph unicode="&#xf0;" horiz-adv-x="1153" d="M100 453q0 129 58.5 237t168.5 173t251 65q41 0 80.5 -11.5t58.5 -33.5l-142 229l-249 -137l-47 86l241 131l-147 242h159l107 -174l176 96l47 -84l-170 -96l258 -412q54 -89 79.5 -157.5t25.5 -153.5q0 -128 -58 -236t-168.5 -174t-250.5 -66t-250.5 66t-169 174 t-58.5 236zM233 453q0 -145 97 -249t248 -104t247.5 104t96.5 249q0 147 -96.5 250.5t-247.5 103.5q-152 0 -248.5 -103.5t-96.5 -250.5z" />
<glyph unicode="&#xf1;" horiz-adv-x="1150" d="M170 0v907h133v-196q40 97 130 157t214 60q184 0 273 -113q79 -98 79 -283v-532h-133v494q0 142 -65 228.5t-199 86.5q-97 0 -166.5 -51.5t-101 -127.5t-31.5 -165v-465h-133zM211 1227q41 79 102.5 118t130.5 39q46 0 89 -17t69.5 -38t60.5 -38t64 -17q44 0 79.5 31 t57.5 79l101 -49q-39 -84 -102.5 -126t-133.5 -42q-46 0 -89.5 17.5t-71.5 38t-61.5 38t-62.5 17.5q-87 0 -135 -111z" />
<glyph unicode="&#xf2;" horiz-adv-x="1130" d="M88 453q0 129 58 237t167.5 173t249.5 65q142 0 252.5 -65t168.5 -173t58 -237t-58 -236.5t-169 -173.5t-252 -66q-139 0 -249 66t-168 174t-58 236zM221 453q0 -146 95.5 -249.5t246.5 -103.5q154 0 250 103.5t96 249.5q0 147 -96 250.5t-250 103.5 q-151 0 -246.5 -103.5t-95.5 -250.5zM289 1325l63 107l510 -281l-63 -107z" />
<glyph unicode="&#xf3;" horiz-adv-x="1130" d="M88 453q0 129 58 237t167.5 173t249.5 65q142 0 252.5 -65t168.5 -173t58 -237t-58 -236.5t-169 -173.5t-252 -66q-139 0 -249 66t-168 174t-58 236zM221 453q0 -146 95.5 -249.5t246.5 -103.5q154 0 250 103.5t96 249.5q0 147 -96 250.5t-250 103.5 q-151 0 -246.5 -103.5t-95.5 -250.5zM248 1151l510 281l63 -107l-510 -281z" />
<glyph unicode="&#xf4;" horiz-adv-x="1130" d="M88 453q0 129 58 237t167.5 173t249.5 65q142 0 252.5 -65t168.5 -173t58 -237t-58 -236.5t-169 -173.5t-252 -66q-139 0 -249 66t-168 174t-58 236zM205 1184l358 309l359 -309l-78 -88l-281 247l-278 -247zM221 453q0 -146 95.5 -249.5t246.5 -103.5q154 0 250 103.5 t96 249.5q0 147 -96 250.5t-250 103.5q-151 0 -246.5 -103.5t-95.5 -250.5z" />
<glyph unicode="&#xf5;" horiz-adv-x="1130" d="M88 453q0 129 58 237t167.5 173t249.5 65q142 0 252.5 -65t168.5 -173t58 -237t-58 -236.5t-169 -173.5t-252 -66q-139 0 -249 66t-168 174t-58 236zM186 1227q41 79 103 118t131 39q46 0 88.5 -17t69.5 -38t60.5 -38t63.5 -17q45 0 80.5 31t57.5 79l100 -49 q-39 -84 -102 -126t-133 -42q-46 0 -89.5 17.5t-71.5 38t-61.5 38t-62.5 17.5q-87 0 -135 -111zM221 453q0 -146 95.5 -249.5t246.5 -103.5q154 0 250 103.5t96 249.5q0 147 -96 250.5t-250 103.5q-151 0 -246.5 -103.5t-95.5 -250.5z" />
<glyph unicode="&#xf6;" horiz-adv-x="1130" d="M88 453q0 129 58 237t167.5 173t249.5 65q142 0 252.5 -65t168.5 -173t58 -237t-58 -236.5t-169 -173.5t-252 -66q-139 0 -249 66t-168 174t-58 236zM207 1239q0 54 35 89.5t86 35.5q54 0 89.5 -35.5t35.5 -89.5q0 -51 -35.5 -86t-89.5 -35q-51 0 -86 35t-35 86zM221 453 q0 -146 95.5 -249.5t246.5 -103.5q154 0 250 103.5t96 249.5q0 147 -96 250.5t-250 103.5q-151 0 -246.5 -103.5t-95.5 -250.5zM678 1239q0 54 35 89.5t86 35.5q54 0 88.5 -35.5t34.5 -89.5q0 -51 -35 -86t-88 -35q-51 0 -86 35t-35 86z" />
<glyph unicode="&#xf7;" d="M170 420v121h827v-121h-827zM463 195q0 40 36.5 81t84.5 41q50 0 86.5 -40.5t36.5 -81.5q0 -54 -34.5 -88.5t-88.5 -34.5q-52 0 -86.5 35t-34.5 88zM463 782q0 54 35 89.5t86 35.5q54 0 88.5 -35.5t34.5 -89.5q0 -51 -34.5 -85.5t-88.5 -34.5q-51 0 -86 34.5t-35 85.5z " />
<glyph unicode="&#xf8;" horiz-adv-x="1130" d="M88 453q0 129 58 237t167.5 173t249.5 65q58 0 131 -17l56 131l88 -34l-58 -129q122 -57 192 -171.5t70 -254.5q0 -129 -58 -236.5t-169 -173.5t-252 -66q-83 0 -160 27l-61 -143l-88 37l61 145q-108 61 -167.5 170.5t-59.5 239.5zM221 453q0 -93 38.5 -169.5 t109.5 -123.5l274 637q-45 10 -80 10q-151 0 -246.5 -103.5t-95.5 -250.5zM453 117q40 -17 110 -17q154 0 250 103.5t96 249.5q0 101 -47 183t-131 126z" />
<glyph unicode="&#xf9;" horiz-adv-x="1146" d="M147 375v532h136v-493q0 -143 64 -229.5t198 -86.5q97 0 166.5 51.5t101 127.5t31.5 165v465h133v-907h-133v197q-40 -97 -130 -158.5t-214 -61.5q-182 0 -273 115q-80 99 -80 283zM291 1325l63 107l510 -281l-63 -107z" />
<glyph unicode="&#xfa;" horiz-adv-x="1146" d="M147 375v532h136v-493q0 -143 64 -229.5t198 -86.5q97 0 166.5 51.5t101 127.5t31.5 165v465h133v-907h-133v197q-40 -97 -130 -158.5t-214 -61.5q-182 0 -273 115q-80 99 -80 283zM285 1151l510 281l63 -107l-510 -281z" />
<glyph unicode="&#xfb;" horiz-adv-x="1148" d="M147 375v532h136v-493q0 -143 64 -229.5t198 -86.5q97 0 166.5 51.5t101 127.5t31.5 165v465h133v-907h-133v197q-40 -97 -130 -158.5t-214 -61.5q-182 0 -273 115q-80 99 -80 283zM221 1184l359 307l358 -307l-78 -90l-280 249l-279 -247z" />
<glyph unicode="&#xfc;" horiz-adv-x="1146" d="M147 375v532h136v-493q0 -143 64 -229.5t198 -86.5q97 0 166.5 51.5t101 127.5t31.5 165v465h133v-907h-133v197q-40 -97 -130 -158.5t-214 -61.5q-182 0 -273 115q-80 99 -80 283zM207 1239q0 54 35 89.5t86 35.5q54 0 88.5 -35.5t34.5 -89.5q0 -51 -34.5 -86t-88.5 -35 q-51 0 -86 35t-35 86zM678 1239q0 54 35 89.5t86 35.5q54 0 88.5 -35.5t34.5 -89.5q0 -51 -35 -86t-88 -35q-51 0 -86 35t-35 86z" />
<glyph unicode="&#xfd;" horiz-adv-x="1163" d="M154 -133h135q15 -299 289 -299q144 0 216 75t72 251v303q-41 -98 -129 -159t-211 -61q-99 0 -164 27.5t-114 83.5q-42 51 -60 119t-18 178v522h135v-483q0 -159 59 -242.5t205 -83.5q73 0 131 29.5t93.5 79t54 110t18.5 125.5v465h133v-1013q0 -229 -105.5 -335 t-318.5 -106q-412 0 -421 414zM303 1151l510 281l66 -107l-510 -281z" />
<glyph unicode="&#xfe;" horiz-adv-x="1208" d="M170 -526v1960h133v-719q44 98 139 155.5t213 57.5q206 0 337.5 -138.5t131.5 -336.5q0 -96 -34 -182.5t-94.5 -151.5t-149 -103.5t-191.5 -38.5q-118 0 -212.5 58t-139.5 155v-716h-133zM303 453q0 -146 96 -249.5t250 -103.5q151 0 246.5 103.5t95.5 249.5 q0 147 -95.5 250.5t-246.5 103.5q-154 0 -250 -103.5t-96 -250.5z" />
<glyph unicode="&#x152;" horiz-adv-x="2359" d="M88 715q0 116 32 226t95 204t150.5 165t206 111.5t253.5 40.5q201 0 353.5 -91.5t238.5 -244.5v308h783v-127h-644v-531h644v-127h-644v-522h644v-127h-783v303q-86 -153 -238.5 -244.5t-353.5 -91.5q-168 0 -309 62.5t-233.5 166.5t-143.5 238.5t-51 280.5zM233 715 q0 -120 41.5 -231.5t115.5 -198.5t187.5 -139t247.5 -52q133 0 246.5 52t188 139t116 198.5t41.5 231.5t-41.5 231.5t-116 198t-188 138.5t-246.5 52q-134 0 -247.5 -52t-187.5 -138.5t-115.5 -198t-41.5 -231.5z" />
<glyph unicode="&#x153;" horiz-adv-x="1875" d="M88 453q0 129 58 237t167.5 173t249.5 65q137 0 243 -63t163 -171q49 109 148 171.5t237 62.5q177 0 298.5 -117t121.5 -289q0 -48 -7 -98h-723q0 -146 81 -238t235 -92q108 0 173.5 46t92.5 120h137q-26 -117 -135.5 -200t-267.5 -83q-142 0 -240.5 64t-148.5 172 q-56 -108 -162.5 -172t-245.5 -64t-249 66t-168 174t-58 236zM221 453q0 -146 95.5 -249.5t246.5 -103.5q154 0 250 101.5t96 251.5q0 151 -96 252.5t-250 101.5q-151 0 -246.5 -103.5t-95.5 -250.5zM1047 528h595q0 127 -82.5 206t-207.5 79q-134 0 -216.5 -77.5 t-88.5 -207.5z" />
<glyph unicode="&#x178;" d="M18 1434h162l455 -723l371 723h153l-731 -1434h-154l289 567zM266 1702q0 51 34 86t83 35q51 0 85 -35t34 -86q0 -50 -34 -83.5t-85 -33.5q-49 0 -83 33.5t-34 83.5zM737 1702q0 51 34 86t83 35q51 0 85 -35t34 -86q0 -50 -34 -83.5t-85 -33.5q-50 0 -83.5 33.5 t-33.5 83.5z" />
<glyph unicode="&#x2c6;" horiz-adv-x="913" d="M86 1427l369 297l368 -297l-84 -94l-284 230l-285 -230z" />
<glyph unicode="&#x2dc;" horiz-adv-x="960" d="M137 1356q57 36 102 54.5t63.5 21t45.5 2.5q29 0 146.5 -28t142.5 -28q32 0 61.5 10t102.5 46l55 -91q-50 -34 -91 -51.5t-62.5 -20.5t-51.5 -3q-38 0 -144.5 26.5t-144.5 26.5q-69 0 -163 -55z" />
<glyph unicode="&#x2000;" horiz-adv-x="999" />
<glyph unicode="&#x2001;" horiz-adv-x="1999" />
<glyph unicode="&#x2002;" horiz-adv-x="999" />
<glyph unicode="&#x2003;" horiz-adv-x="1999" />
<glyph unicode="&#x2004;" horiz-adv-x="666" />
<glyph unicode="&#x2005;" horiz-adv-x="499" />
<glyph unicode="&#x2006;" horiz-adv-x="333" />
<glyph unicode="&#x2007;" horiz-adv-x="333" />
<glyph unicode="&#x2008;" horiz-adv-x="249" />
<glyph unicode="&#x2009;" horiz-adv-x="399" />
<glyph unicode="&#x200a;" horiz-adv-x="111" />
<glyph unicode="&#x2010;" horiz-adv-x="602" d="M61 522v121h480v-121h-480z" />
<glyph unicode="&#x2011;" horiz-adv-x="602" d="M61 522v121h480v-121h-480z" />
<glyph unicode="&#x2012;" horiz-adv-x="602" d="M61 522v121h480v-121h-480z" />
<glyph unicode="&#x2013;" horiz-adv-x="1030" d="M102 522v121h826v-121h-826z" />
<glyph unicode="&#x2014;" horiz-adv-x="2060" d="M102 522v121h1856v-121h-1856z" />
<glyph unicode="&#x2018;" horiz-adv-x="524" d="M123 1253q0 137 67.5 199t196.5 64v-72q-120 0 -141 -84q-14 -33 -14 -68q0 -8 1 -16q16 16 50 16q53 0 85.5 -33t32.5 -83t-35.5 -85.5t-89.5 -35.5q-71 0 -112 55t-41 143z" />
<glyph unicode="&#x201a;" horiz-adv-x="524" d="M123 98q0 50 35.5 85.5t89.5 35.5q71 0 112 -55.5t41 -143.5q0 -137 -67.5 -198.5t-196.5 -63.5v72q121 0 142 84q13 31 13 66q0 9 -1 18q-16 -16 -49 -16q-53 0 -86 33t-33 83z" />
<glyph unicode="&#x201c;" horiz-adv-x="856" d="M123 1253q0 137 67.5 199t196.5 64v-72q-120 0 -141 -84q-14 -33 -14 -68q0 -8 1 -16q16 16 50 16q53 0 85.5 -33t32.5 -83t-35.5 -85.5t-89.5 -35.5q-71 0 -112 55t-41 143zM455 1253q0 260 264 263v-72q-114 0 -141 -84q-13 -37 -13 -64q0 -11 2 -20q16 16 49 16 q53 0 85 -33t32 -83q0 -51 -34.5 -86t-88.5 -35q-71 0 -113 55t-42 143z" />
<glyph unicode="&#x201d;" horiz-adv-x="856" d="M123 1395q0 51 35.5 86t89.5 35q71 0 112 -55.5t41 -143.5q0 -137 -67.5 -198.5t-196.5 -63.5v71q56 0 93.5 22.5t48.5 61.5q13 32 13 65q0 10 -1 19q-16 -16 -49 -16q-53 0 -86 33.5t-33 83.5zM455 1395q0 51 35.5 86t89.5 35q71 0 112 -55.5t41 -143.5 q0 -137 -67.5 -198.5t-196.5 -63.5v71q118 0 141 84q16 38 16 64q0 11 -3 20q-16 -16 -50 -16q-53 0 -85.5 33.5t-32.5 83.5z" />
<glyph unicode="&#x2026;" horiz-adv-x="1871" d="M113 113q0 54 34.5 88.5t85.5 34.5q54 0 89.5 -34.5t35.5 -88.5q0 -51 -36 -87t-89 -36q-51 0 -85.5 36t-34.5 87zM813 111q0 54 35 89.5t86 35.5q54 0 89.5 -35.5t35.5 -89.5q0 -51 -35.5 -86t-89.5 -35q-51 0 -86 35t-35 86zM1513 111q0 53 34.5 87.5t86.5 34.5 q54 0 89.5 -34t35.5 -88q0 -51 -35.5 -87t-89.5 -36q-51 0 -86 36t-35 87z" />
<glyph unicode="&#x202f;" horiz-adv-x="399" />
<glyph unicode="&#x2039;" horiz-adv-x="565" d="M82 553v86l401 348v-137l-290 -254l290 -254v-137z" />
<glyph unicode="&#x203a;" horiz-adv-x="565" d="M82 205v137l291 254l-291 254v137l401 -348v-86z" />
<glyph unicode="&#x205f;" horiz-adv-x="499" />
<glyph unicode="&#x20ac;" horiz-adv-x="1239" d="M49 496l25 106h106v223h-127l27 105h100v45q0 129 57.5 237.5t166.5 174t249 65.5q207 0 339.5 -129t140.5 -319h-142q-8 135 -100.5 228t-237.5 93q-149 0 -241.5 -101.5t-92.5 -248.5v-45h508l-26 -105h-482v-223h502l-24 -106h-478v-41q0 -145 93 -247t241 -102 q151 0 245.5 101t94.5 248h142q0 -130 -58.5 -238t-170 -174t-253.5 -66q-139 0 -248.5 67t-167 175t-57.5 236v41h-131z" />
<glyph unicode="&#x2122;" horiz-adv-x="1648" d="M82 1339v95h530v-95h-213v-739h-104v739h-213zM772 600v834h162l246 -660l245 660h162v-834h-102v698l-258 -698h-94l-259 698v-698h-102z" />
<glyph unicode="&#x25fc;" horiz-adv-x="905" d="M0 0v905h905v-905h-905z" />
</font>
</defs>
</svg>
